# xmcd
# 
# Track frame offsets:
#     150
#     17522
#     30062
#     49910
#     74217
#     92800
#     108582
#     121777
#     136267
#     153327
#     184842
#     200342
#     218397
#     236735
#     254840
#     267907
#     287365
#     310865
#     330170
# 
# Disc length: 4588
# 
# Revision: 6
# Processed by: cddbd v1.5.2PL0 Copyright (c) Steve Scherf et al.
# Submitted via: fre:ac v1.0.17
# 
DISCID=0611ea13
DTITLE=Weddings Parties Anything - Trophy Night
DYEAR=1998
DGENRE=Indie
TTITLE0=Away Away
TTITLE1=Woman of Ireland
TTITLE2=Hungry Years
TTITLE3=Scorn of the Woman
TTITLE4=Industrial Town
TTITLE5=Under the Clocks
TTITLE6=Roaring Days
TTITLE7=Sergeant Small
TTITLE8=Ticket in Tatts
TTITLE9=A Tale They Won't Believe
TTITLE10=Knockbacks in Halifax
TTITLE11=Step In, Step Out
TTITLE12=Father's Day
TTITLE13=Rain in my Heart
TTITLE14=Monday's Experts
TTITLE15=Wide Open Road
TTITLE16=For a Short Time
TTITLE17=Anthem
TTITLE18=Traffic Goes By
EXTD=
EXTT0=
EXTT1=
EXTT2=
EXTT3=
EXTT4=
EXTT5=
EXTT6=
EXTT7=
EXTT8=
EXTT9=
EXTT10=
EXTT11=
EXTT12=
EXTT13=
EXTT14=
EXTT15=
EXTT16=
EXTT17=
EXTT18=
PLAYORDER=
